<?xml version="1.0" encoding="utf-8"?>
<!-- Generator: Adobe Illustrator 19.0.0, SVG Export Plug-In . SVG Version: 6.00 Build 0)  -->
<svg version="1.1" id="Layer_1" xmlns="http://www.w3.org/2000/svg" xmlns:xlink="http://www.w3.org/1999/xlink" x="0px" y="0px"
	 viewBox="-215 380.8 180.4 33.2" style="enable-background:new -215 380.8 180.4 33.2;" xml:space="preserve">
<style type="text/css">
	.st0{fill:#2AA049;}
	.st1{fill:#418BF7;}
	.st2{fill:#FAAD24;}
	.st3{fill:#969696;}
	.st4{fill:#D93025;}
</style>
<g>
	<g>
		<circle class="st0" cx="-209.9" cy="385.8" r="5.1"/>
		<circle class="st1" cx="-198.2" cy="385.8" r="5.1"/>
		<circle class="st1" cx="-186.4" cy="385.8" r="5.1"/>
		<circle class="st0" cx="-209.9" cy="397.3" r="5.1"/>
		<circle class="st2" cx="-209.9" cy="408.8" r="5.1"/>
		<circle class="st3" cx="-198.2" cy="397.3" r="5.1"/>
		<circle class="st4" cx="-186.4" cy="397.3" r="5.1"/>
		<circle class="st2" cx="-198.2" cy="408.8" r="5.1"/>
		<circle class="st4" cx="-186.4" cy="408.8" r="5.1"/>
	</g>
	<g>
		<g>
			<path class="st1" d="M-172.3,391.1c0-6,4.4-10.3,10.4-10.3c6.1,0,10.5,4.3,10.5,10.3s-4.4,10.3-10.5,10.3
				C-167.9,401.4-172.3,397.1-172.3,391.1z M-155.7,391.1c0-3.8-2.4-6.6-6.1-6.6c-3.7,0-6.1,2.8-6.1,6.6c0,3.7,2.4,6.6,6.1,6.6
				C-158.1,397.6-155.7,394.8-155.7,391.1z"/>
			<path class="st1" d="M-148.4,401.1v-20h9.4c4.3,0,6.7,2.9,6.7,6.4s-2.4,6.4-6.7,6.4h-5.1v7.1h-4.3V401.1z M-136.6,387.5
				c0-1.7-1.3-2.7-2.9-2.7h-4.5v5.4h4.5C-137.9,390.2-136.6,389.1-136.6,387.5z"/>
			<path class="st1" d="M-125.1,401.1v-16.3h-5.8v-3.7h16v3.7h-5.8v16.3H-125.1z"/>
			<path class="st1" d="M-112.2,401.1v-20h4.3v20H-112.2z"/>
			<path class="st1" d="M-86.6,401.1v-14l-5.6,14h-1.9l-5.6-14v14h-4.3v-20h6l4.9,12.1l4.9-12.1h6v20H-86.6z"/>
			<path class="st1" d="M-78.4,393.1v-12h4.3V393c0,2.8,1.6,4.7,4.7,4.7s4.7-1.9,4.7-4.7v-11.9h4.3v12c0,5-2.9,8.4-9,8.4
				C-75.4,401.4-78.4,398-78.4,393.1z"/>
			<path class="st1" d="M-39,401.1v-14l-5.6,14h-1.9l-5.6-14v14h-4.3v-20h6l4.9,12.1l4.9-12.1h6v20H-39z"/>
		</g>
		<g>
			<path class="st3" d="M-172.3,413.7v-6.3h4.4v1.2h-3.1v1.3h3v1.2h-3v2.6L-172.3,413.7L-172.3,413.7z"/>
			<path class="st3" d="M-164.9,413.7v-6.3h1.3v6.3H-164.9z"/>
			<path class="st3" d="M-156.1,413.7l-3-4.1v4.1h-1.3v-6.3h1.4l2.9,3.9v-3.9h1.3v6.3H-156.1z"/>
			<path class="st3" d="M-147.3,413.7l-0.4-1.1h-2.7l-0.4,1.1h-1.5l2.4-6.3h1.7l2.4,6.3H-147.3z M-148.9,408.8l-1,2.7h2
				L-148.9,408.8z"/>
			<path class="st3" d="M-138.9,413.7l-3-4.1v4.1h-1.3v-6.3h1.4l2.9,3.9v-3.9h1.3v6.3H-138.9z"/>
			<path class="st3" d="M-134.7,410.6c0-1.9,1.5-3.2,3.3-3.2c1.4,0,2.2,0.8,2.6,1.5l-1.1,0.6c-0.3-0.5-0.8-0.9-1.5-0.9
				c-1.1,0-2,0.9-2,2.1s0.8,2.1,2,2.1c0.6,0,1.2-0.4,1.5-0.9l1.1,0.6c-0.5,0.8-1.2,1.5-2.6,1.5
				C-133.2,413.9-134.7,412.5-134.7,410.6z"/>
			<path class="st3" d="M-126,413.7v-6.3h1.3v6.3H-126z"/>
			<path class="st3" d="M-117.1,413.7l-0.4-1.1h-2.7l-0.4,1.1h-1.5l2.4-6.3h1.7l2.4,6.3H-117.1z M-118.8,408.8l-1,2.7h2
				L-118.8,408.8z"/>
			<path class="st3" d="M-113,413.7v-6.3h1.3v5.1h2.6v1.2L-113,413.7L-113,413.7z"/>
			<path class="st3" d="M-102.2,412.9l0.7-1c0.4,0.5,1.1,0.8,2,0.8c0.7,0,1.1-0.3,1.1-0.7c0-1.1-3.6-0.3-3.6-2.7
				c0-1,0.9-1.9,2.4-1.9c1,0,1.8,0.3,2.4,0.9l-0.7,1c-0.5-0.5-1.2-0.7-1.8-0.7c-0.6,0-0.9,0.3-0.9,0.6c0,1,3.6,0.3,3.6,2.7
				c0,1.1-0.8,2-2.5,2C-100.8,413.9-101.6,413.5-102.2,412.9z"/>
			<path class="st3" d="M-94.5,410.6c0-1.9,1.4-3.2,3.3-3.2s3.3,1.4,3.3,3.2c0,1.9-1.4,3.2-3.3,3.2
				C-93.1,413.9-94.5,412.5-94.5,410.6z M-89.3,410.6c0-1.2-0.8-2.1-1.9-2.1c-1.2,0-1.9,0.9-1.9,2.1s0.7,2.1,1.9,2.1
				C-90.1,412.7-89.3,411.8-89.3,410.6z"/>
			<path class="st3" d="M-85,413.7v-6.3h1.3v5.1h2.6v1.2L-85,413.7L-85,413.7z"/>
			<path class="st3" d="M-78.4,411.2v-3.8h1.4v3.7c0,0.9,0.5,1.5,1.5,1.5s1.5-0.6,1.5-1.5v-3.7h1.4v3.8c0,1.6-0.9,2.6-2.8,2.6
				S-78.4,412.8-78.4,411.2z"/>
			<path class="st3" d="M-68.1,413.7v-5.1h-1.8v-1.2h5v1.2h-1.8v5.1H-68.1z"/>
			<path class="st3" d="M-62.1,413.7v-6.3h1.3v6.3H-62.1z"/>
			<path class="st3" d="M-57.9,410.6c0-1.9,1.4-3.2,3.3-3.2s3.3,1.4,3.3,3.2c0,1.9-1.4,3.2-3.3,3.2
				C-56.5,413.9-57.9,412.5-57.9,410.6z M-52.7,410.6c0-1.2-0.8-2.1-1.9-2.1c-1.2,0-1.9,0.9-1.9,2.1s0.7,2.1,1.9,2.1
				C-53.4,412.7-52.7,411.8-52.7,410.6z"/>
			<path class="st3" d="M-44.1,413.7l-3-4.1v4.1h-1.3v-6.3h1.4l2.9,3.9v-3.9h1.3v6.3H-44.1z"/>
			<path class="st3" d="M-40,412.9l0.7-1c0.4,0.5,1.1,0.8,2,0.8c0.7,0,1.1-0.3,1.1-0.7c0-1.1-3.6-0.3-3.6-2.7c0-1,0.9-1.9,2.4-1.9
				c1,0,1.8,0.3,2.4,0.9l-0.7,1c-0.5-0.5-1.2-0.7-1.8-0.7s-0.9,0.3-0.9,0.6c0,1,3.6,0.3,3.6,2.7c0,1.1-0.8,2-2.5,2
				C-38.6,413.9-39.4,413.5-40,412.9z"/>
		</g>
	</g>
</g>
</svg>
